<?xml version="1.0" encoding="UTF-8" standalone="no"?>
<svg
   xmlns:dc="http://purl.org/dc/elements/1.1/"
   xmlns:cc="http://creativecommons.org/ns#"
   xmlns:rdf="http://www.w3.org/1999/02/22-rdf-syntax-ns#"
   xmlns:svg="http://www.w3.org/2000/svg"
   xmlns="http://www.w3.org/2000/svg"
   viewBox="0 0 591.70502 79.585625"
   height="79.585625"
   width="591.70502"
   xml:space="preserve"
   version="1.1"
   id="svg2"><metadata
     id="metadata8"><rdf:RDF><cc:Work
         rdf:about=""><dc:format>image/svg+xml</dc:format><dc:type
           rdf:resource="http://purl.org/dc/dcmitype/StillImage" /></cc:Work></rdf:RDF></metadata><defs
     id="defs6"><clipPath
       id="clipPath16"
       clipPathUnits="userSpaceOnUse"><path
         id="path18"
         d="m 0,63.668 473.364,0 L 473.364,0 0,0 0,63.668 Z" /></clipPath></defs><g
     transform="matrix(1.25,0,0,-1.25,0,79.585625)"
     id="g10"><g
       id="g12"><g
         clip-path="url(#clipPath16)"
         id="g14"><g
           transform="translate(55.7544,9.915)"
           id="g20"><path
             id="path22"
             style="fill:#2290bc;fill-opacity:1;fill-rule:nonzero;stroke:none"
             d="m 0,0 c 0.118,1.689 0.207,3.513 0.267,5.469 0.058,1.956 0.103,3.942 0.133,5.958 0.029,2.014 0.044,4.03 0.044,6.046 l 0,0.845 0,0.756 0,0.844 0,0.756 c 0,3.32 -0.015,6.506 -0.044,9.56 -0.03,3.052 -0.104,5.942 -0.222,8.67 -0.06,2.785 -0.134,5.024 -0.222,6.713 -0.089,1.69 -0.194,2.83 -0.312,3.424 L 0,49.396 c 0.118,0.059 0.251,0.103 0.4,0.134 0.147,0.029 0.311,0.044 0.489,0.044 l 3.557,0 0.222,0 0.223,0 c 0.118,-0.059 0.222,-0.089 0.311,-0.089 l 0.222,0 c 0.178,0 0.37,-0.015 0.578,-0.044 0.207,-0.031 0.43,-0.075 0.667,-0.133 0.474,-0.06 0.903,-0.178 1.289,-0.356 0.385,-0.178 0.756,-0.356 1.112,-0.534 0.356,-0.237 0.637,-0.46 0.845,-0.667 0.207,-0.208 0.311,-0.459 0.311,-0.755 l 0,-4.447 0,-6.224 0,-3.601 0,-3.691 c -0.06,-1.245 -0.089,-2.49 -0.089,-3.735 l 0,-3.823 C 10.077,19.874 10.033,18.318 10.004,16.806 9.973,15.295 9.959,13.797 9.959,12.316 9.899,10.893 9.855,9.47 9.826,8.047 9.795,6.625 9.751,5.231 9.692,3.868 9.633,1.141 9.515,-1.038 9.337,-2.667 9.159,-4.299 8.981,-5.438 8.803,-6.091 l -0.178,-0.622 -0.533,-0.179 -3.557,0 c -0.178,0.06 -0.356,0.105 -0.534,0.134 -0.177,0.03 -0.355,0.104 -0.533,0.222 -0.119,0.06 -0.238,0.104 -0.356,0.134 -0.119,0.03 -0.208,0.044 -0.267,0.044 -0.119,0.06 -0.222,0.104 -0.311,0.133 -0.089,0.031 -0.193,0.076 -0.311,0.134 L 1.778,-5.913 1.423,-5.735 C 1.245,-5.616 1.067,-5.513 0.889,-5.424 0.711,-5.335 0.562,-5.231 0.444,-5.113 0.267,-5.053 0.118,-4.979 0,-4.891 -0.12,-4.802 -0.238,-4.757 -0.356,-4.757 -0.238,-3.276 -0.12,-1.689 0,0 m -43.617,22.72 c 0.03,0.355 0.045,0.769 0.045,1.245 l 0,0.711 c 0,0.236 0.029,0.503 0.089,0.8 l 0,0.8 0,0.89 0,0.934 0,1.022 c -0.06,0.356 -0.089,0.725 -0.089,1.112 l 0,1.111 c 0,0.77 -0.015,1.556 -0.045,2.357 -0.03,0.8 -0.074,1.585 -0.133,2.356 -0.06,1.245 -0.133,2.475 -0.222,3.691 -0.089,1.214 -0.194,2.414 -0.312,3.601 -0.119,1.185 -0.252,2.252 -0.4,3.201 -0.148,0.948 -0.311,1.779 -0.489,2.49 0.118,0.178 0.236,0.34 0.356,0.489 0.118,0.147 0.267,0.251 0.444,0.311 0.179,0.118 0.37,0.192 0.579,0.222 0.207,0.029 0.429,0.045 0.667,0.045 l 3.556,0 0.312,0 0.222,0 c 0.118,-0.06 0.222,-0.089 0.311,-0.089 l 0.223,0 c 0.177,-0.06 0.355,-0.104 0.533,-0.133 0.178,-0.031 0.385,-0.075 0.622,-0.134 0.296,-0.119 0.608,-0.267 0.934,-0.444 0.325,-0.178 0.637,-0.356 0.934,-0.534 0.178,-0.06 0.34,-0.149 0.489,-0.267 0.147,-0.119 0.281,-0.208 0.4,-0.267 0.118,-0.119 0.237,-0.222 0.356,-0.311 0.118,-0.089 0.236,-0.193 0.356,-0.311 0.118,-0.119 0.222,-0.238 0.311,-0.356 0.089,-0.119 0.162,-0.237 0.222,-0.355 l 0.178,-0.623 -2.134,-24.453 c 0.533,-0.06 1.125,-0.105 1.778,-0.134 0.652,-0.03 1.334,-0.044 2.045,-0.044 l 2.224,0 2.401,0 0.889,0 0.889,0 c 0.355,-0.06 0.68,-0.09 0.978,-0.09 l 0.978,0 0.134,0 0.133,0 0.178,0 5.602,0 c 1.837,0 3.615,0.03 5.335,0.09 1.719,0.058 3.246,0.147 4.58,0.266 1.333,0.119 2.445,0.296 3.334,0.534 l 3.557,0 0.089,0 c 0.118,0 0.252,-0.044 0.4,-0.134 C 0.37,22.23 0.503,22.126 0.623,22.008 0.74,21.831 0.83,21.667 0.889,21.519 0.947,21.371 0.978,21.237 0.978,21.119 0.978,20.941 0.918,20.763 0.8,20.585 0.681,20.408 0.474,20.259 0.178,20.141 -0.06,19.963 -0.386,19.844 -0.8,19.785 c -0.416,-0.059 -0.95,-0.089 -1.601,-0.089 -2.787,-0.355 -5.544,-0.682 -8.27,-0.978 -2.727,-0.297 -5.424,-0.533 -8.092,-0.711 -2.667,-0.238 -5.321,-0.445 -7.958,-0.623 -2.639,-0.177 -5.262,-0.355 -7.87,-0.533 -0.06,-0.711 -0.133,-1.527 -0.222,-2.446 -0.089,-0.919 -0.164,-1.971 -0.223,-3.156 -0.059,-1.187 -0.104,-2.401 -0.133,-3.646 -0.031,-1.245 -0.044,-2.52 -0.044,-3.824 -0.06,-1.364 -0.089,-2.698 -0.089,-4.001 l 0,-3.824 0,-3.201 0,-2.312 c -0.06,0 -0.149,-0.029 -0.267,-0.089 -0.06,-0.059 -0.119,-0.089 -0.178,-0.089 l -0.178,0 -0.178,0 c -0.059,0 -0.088,-0.029 -0.088,-0.089 l -0.178,0 -0.178,0 -3.557,-0.089 c -0.06,0.06 -0.149,0.089 -0.267,0.089 -0.06,0.06 -0.119,0.089 -0.178,0.089 l -0.178,0 -0.533,-0.089 c -0.356,0.119 -0.698,0.267 -1.023,0.445 -0.326,0.177 -0.637,0.386 -0.933,0.622 -0.298,0.238 -0.549,0.52 -0.756,0.845 -0.209,0.327 -0.371,0.697 -0.489,1.111 0.058,0.298 0.103,0.609 0.133,0.934 0.029,0.327 0.074,0.698 0.134,1.112 0,0.296 0.013,0.667 0.044,1.111 0.029,0.445 0.073,0.934 0.133,1.467 0.059,0.474 0.103,0.963 0.134,1.468 0.029,0.503 0.073,1.022 0.133,1.556 0,0.533 0.014,1.081 0.044,1.645 0.03,0.563 0.074,1.112 0.134,1.645 0.118,1.245 0.192,2.474 0.222,3.69 0.029,1.215 0.074,2.386 0.134,3.512 0.058,1.126 0.102,2.09 0.133,2.891 0.029,0.8 0.044,1.436 0.044,1.912 l -0.177,0 c -0.06,0 -0.12,0.028 -0.178,0.089 l -0.178,0 -0.178,0 -0.222,0 -0.222,0 -0.267,0 -0.267,0 -0.534,0 -0.533,0 -0.4,0 -0.4,0 -0.489,0 -0.401,0 c -0.297,0 -0.593,0.013 -0.889,0.044 -0.297,0.029 -0.593,0.074 -0.889,0.133 -0.831,0.058 -1.631,0.192 -2.401,0.4 -0.771,0.207 -1.482,0.489 -2.134,0.845 -0.712,0.356 -1.216,0.89 -1.512,1.601 -0.297,0.711 -0.444,1.57 -0.444,2.579 l 0,0.177 0,0.267 c 0.059,0.058 0.088,0.134 0.088,0.223 l 0,0.222 0,0.311 0,0.222 0,0.311 0,0.311 3.558,0 c 0.117,-0.059 0.222,-0.104 0.311,-0.133 0.089,-0.03 0.192,-0.044 0.311,-0.044 0.118,-0.06 0.236,-0.104 0.356,-0.134 0.118,-0.03 0.236,-0.075 0.355,-0.133 0.118,-0.059 0.252,-0.119 0.4,-0.178 0.147,-0.06 0.281,-0.088 0.4,-0.088 0.178,-0.061 0.341,-0.12 0.49,-0.179 0.147,-0.059 0.311,-0.119 0.488,-0.177 0.356,-0.12 0.726,-0.238 1.112,-0.356 0.385,-0.12 0.785,-0.238 1.2,-0.356 0.414,-0.059 0.846,-0.133 1.29,-0.222 0.445,-0.089 0.874,-0.133 1.29,-0.133 l 0.088,0 0.089,0 0.178,0 0,0.089 c 0.059,0.236 0.103,0.533 0.133,0.889" /></g><g
           transform="translate(78.562,21.1636)"
           id="g24"><path
             id="path26"
             style="fill:#2290bc;fill-opacity:1;fill-rule:nonzero;stroke:none"
             d="m 0,0 c 0.029,0.236 0.074,0.474 0.133,0.711 0,0.237 0.014,0.459 0.045,0.667 0.029,0.207 0.073,0.43 0.134,0.667 l 0,0.311 c 0,0.089 0.028,0.192 0.088,0.312 l 0,0.267 0,0.266 0,0.312 c 0,0.089 0.029,0.192 0.089,0.311 0,0.058 0.014,0.147 0.045,0.267 0.029,0.117 0.044,0.207 0.044,0.266 0.058,0.474 0.103,0.934 0.133,1.379 0.03,0.444 0.074,0.903 0.134,1.378 0.058,0.474 0.133,1.007 0.222,1.6 0.089,0.593 0.162,1.186 0.223,1.779 l 0.444,0.267 0.534,0.089 3.557,0 0.177,0 0.267,0 C 6.328,10.789 6.402,10.76 6.491,10.76 l 0.223,0 C 6.832,10.7 6.98,10.656 7.158,10.626 7.336,10.596 7.514,10.522 7.692,10.404 7.81,10.344 7.914,10.285 8.003,10.226 8.092,10.167 8.195,10.137 8.314,10.137 8.373,10.078 8.461,10.018 8.581,9.959 8.699,9.9 8.788,9.84 8.848,9.782 9.026,9.662 9.204,9.529 9.381,9.381 9.559,9.233 9.737,9.1 9.915,8.981 10.033,8.862 10.167,8.744 10.315,8.625 10.462,8.506 10.566,8.388 10.626,8.27 L 11.071,7.736 C 11.011,7.617 10.952,7.499 10.893,7.381 10.833,7.261 10.804,7.143 10.804,7.025 10.745,6.847 10.685,6.683 10.626,6.536 10.566,6.387 10.507,6.225 10.448,6.047 10.389,5.869 10.329,5.691 10.271,5.513 10.211,5.335 10.182,5.158 10.182,4.98 10.122,4.802 10.062,4.609 10.004,4.402 9.944,4.193 9.884,3.971 9.826,3.735 9.707,3.319 9.588,2.875 9.47,2.401 9.351,1.926 9.233,1.452 9.115,0.979 9.055,0.503 8.981,0.029 8.893,-0.444 8.803,-0.919 8.699,-1.394 8.581,-1.867 8.521,-2.283 8.461,-2.698 8.403,-3.112 8.344,-3.527 8.284,-3.943 8.226,-4.357 8.166,-4.772 8.137,-5.157 8.137,-5.513 l 0,-1.067 c -0.06,-0.653 -0.045,-1.275 0.044,-1.867 0.089,-0.594 0.222,-1.127 0.4,-1.601 0.178,-0.415 0.4,-0.786 0.667,-1.112 0.267,-0.326 0.578,-0.548 0.934,-0.667 l 0.089,0 c 0.295,0.119 0.607,0.237 0.933,0.356 0.325,0.118 0.667,0.267 1.023,0.445 0.947,0.474 1.881,1.081 2.801,1.823 0.918,0.74 1.823,1.645 2.712,2.712 0.889,1.007 1.734,2.059 2.534,3.157 0.801,1.096 1.497,2.208 2.09,3.334 0.178,0.296 0.341,0.578 0.489,0.845 0.147,0.267 0.281,0.548 0.4,0.845 0.119,0.236 0.237,0.503 0.356,0.8 0.118,0.296 0.236,0.563 0.356,0.801 0.236,0.533 0.444,1.051 0.622,1.556 0.178,0.503 0.325,0.991 0.445,1.466 0.118,0.296 0.251,0.534 0.4,0.712 0.147,0.178 0.34,0.356 0.578,0.534 0.236,0.118 0.474,0.236 0.711,0.355 0.237,0.118 0.474,0.207 0.712,0.267 0.118,0 0.236,0.014 0.356,0.045 0.117,0.029 0.266,0.044 0.444,0.044 0.118,0.058 0.236,0.089 0.356,0.089 l 0.355,0 0.311,0 c 0.09,0 0.192,0.029 0.312,0.089 l 0.178,0 0.177,0 3.557,0 0,-0.267 C 33.419,8.121 33.391,8.062 33.391,8.003 l 0,-0.178 0,-0.266 0,-0.178 0,-0.178 0,-0.356 0,-0.355 0,-0.534 0,-0.267 0,-0.267 c 0,-1.542 0.073,-3.068 0.222,-4.579 0.147,-1.512 0.34,-2.979 0.578,-4.402 0.296,-1.422 0.578,-2.727 0.845,-3.912 0.266,-1.187 0.547,-2.223 0.844,-3.113 0.119,-0.237 0.207,-0.489 0.267,-0.755 0.059,-0.267 0.147,-0.49 0.267,-0.667 0.058,-0.238 0.133,-0.445 0.222,-0.623 0.089,-0.178 0.163,-0.326 0.222,-0.444 0.178,-0.298 0.341,-0.52 0.49,-0.667 0.147,-0.149 0.28,-0.222 0.4,-0.222 1.007,-0.179 1.645,-0.416 1.912,-0.712 0.266,-0.297 0.162,-0.653 -0.312,-1.067 -0.415,-0.356 -1.082,-0.756 -2,-1.2 -0.92,-0.445 -2.061,-0.904 -3.424,-1.379 l -0.533,-0.266 -0.534,-0.179 -3.557,0 c -0.238,0.356 -0.475,0.816 -0.711,1.379 -0.238,0.564 -0.445,1.231 -0.623,2.001 -0.237,0.829 -0.445,1.703 -0.622,2.623 -0.178,0.918 -0.356,1.852 -0.534,2.801 -0.237,1.067 -0.46,2.074 -0.667,3.023 -0.208,0.948 -0.4,1.868 -0.578,2.757 -0.119,-0.178 -0.253,-0.356 -0.4,-0.534 -0.148,-0.178 -0.282,-0.355 -0.4,-0.533 -0.119,-0.238 -0.253,-0.445 -0.4,-0.623 -0.149,-0.177 -0.311,-0.356 -0.489,-0.533 -0.593,-0.771 -1.245,-1.542 -1.957,-2.312 -0.711,-0.771 -1.453,-1.512 -2.223,-2.224 -0.771,-0.71 -1.542,-1.364 -2.312,-1.956 -0.771,-0.593 -1.542,-1.127 -2.312,-1.6 -0.533,-0.356 -1.067,-0.653 -1.6,-0.889 -0.534,-0.238 -1.038,-0.445 -1.512,-0.623 -0.475,-0.058 -0.949,-0.133 -1.422,-0.222 -0.476,-0.089 -0.95,-0.133 -1.423,-0.133 l -3.557,-0.09 c -0.475,0.06 -0.934,0.134 -1.378,0.223 -0.445,0.089 -0.876,0.193 -1.29,0.311 -0.415,0.178 -0.815,0.429 -1.201,0.756 -0.386,0.325 -0.755,0.725 -1.111,1.201 -0.238,0.355 -0.415,0.755 -0.534,1.2 -0.119,0.445 -0.237,0.903 -0.355,1.378 -0.06,0.474 -0.12,0.978 -0.178,1.512 -0.06,0.533 -0.089,1.096 -0.089,1.689 l 0,1.067 c 0,0.356 0.029,0.712 0.089,1.068 0,0.355 0.014,0.711 0.045,1.067 0.028,0.355 0.073,0.711 0.133,1.066 l 0,0.934 c 0,0.325 0.029,0.607 0.089,0.845 l 0,0.356 c 0,0.118 0.029,0.236 0.089,0.356 l 0,0.355 0,0.356 0,0.089 C -0.075,-0.444 -0.03,-0.237 0,0" /></g><g
           transform="translate(129.5142,14.4058)"
           id="g28"><path
             id="path30"
             style="fill:#2290bc;fill-opacity:1;fill-rule:nonzero;stroke:none"
             d="m 0,0 c -1.454,3.201 -2.505,5.602 -3.157,7.203 -0.711,1.6 -1.334,2.934 -1.867,4.001 -0.534,1.067 -1.009,1.867 -1.423,2.401 l -0.267,0.356 -0.355,0.444 c -0.06,0.059 -0.12,0.118 -0.179,0.178 -0.059,0.059 -0.119,0.118 -0.177,0.178 -0.06,0 -0.12,0.029 -0.178,0.089 -0.06,0.058 -0.12,0.118 -0.178,0.178 -0.06,0.118 -0.164,0.236 -0.311,0.355 -0.149,0.118 -0.282,0.267 -0.4,0.445 -0.298,0.296 -0.445,0.547 -0.445,0.756 0,0.207 0.147,0.37 0.445,0.489 0.296,0.118 0.651,0.222 1.067,0.311 0.414,0.089 0.889,0.134 1.423,0.134 l 3.557,0 0.355,0 0.356,0 0.178,0 0.266,0 c 0.059,-0.06 0.134,-0.089 0.223,-0.089 l 0.222,0 c 0.296,-0.06 0.607,-0.104 0.934,-0.134 0.325,-0.03 0.667,-0.104 1.022,-0.222 0.296,-0.06 0.578,-0.134 0.845,-0.222 C 2.223,16.762 2.474,16.658 2.712,16.54 3.008,16.479 3.334,16.139 3.69,15.517 4.046,14.895 4.46,14.019 4.935,12.894 5.409,11.767 5.898,10.566 6.402,9.292 6.905,8.017 7.425,6.698 7.958,5.335 L 8.047,4.979 8.225,4.624 C 8.699,3.259 9.188,1.941 9.692,0.667 c 0.503,-1.276 0.963,-2.505 1.379,-3.69 0.178,-0.416 0.34,-0.801 0.489,-1.157 0.147,-0.355 0.28,-0.682 0.4,-0.978 0.178,0.178 0.34,0.341 0.489,0.49 0.147,0.147 0.28,0.311 0.4,0.488 0.118,0.179 0.252,0.37 0.4,0.578 0.147,0.207 0.312,0.401 0.489,0.579 0.474,0.651 0.948,1.347 1.423,2.089 0.474,0.741 0.948,1.526 1.423,2.357 0.474,0.829 0.934,1.689 1.378,2.578 0.445,0.89 0.874,1.779 1.289,2.668 0.474,1.067 0.904,2.119 1.29,3.157 0.385,1.036 0.725,2.03 1.022,2.979 0.296,1.007 0.519,1.925 0.667,2.757 0.148,0.829 0.223,1.6 0.223,2.312 l 0,0.177 0,0.267 c -0.06,0.058 -0.089,0.118 -0.089,0.178 l 0,0.178 0,0.178 0,0.177 c -0.06,0.058 -0.089,0.118 -0.089,0.178 l 0,0.178 c 0.118,0.296 0.251,0.503 0.4,0.622 0.147,0.118 0.341,0.148 0.578,0.089 l 3.557,0 c 0.236,-0.059 0.474,-0.148 0.711,-0.266 0.236,-0.12 0.474,-0.327 0.712,-0.623 0.118,-0.12 0.222,-0.253 0.311,-0.4 0.089,-0.149 0.192,-0.311 0.311,-0.489 0.059,-0.12 0.147,-0.267 0.267,-0.444 0.118,-0.179 0.207,-0.356 0.267,-0.534 0.177,-0.356 0.355,-0.712 0.533,-1.068 0.178,-0.355 0.326,-0.71 0.445,-1.066 0.058,-0.12 0.103,-0.253 0.133,-0.4 0.029,-0.149 0.074,-0.283 0.134,-0.401 0,-0.119 0.013,-0.253 0.044,-0.4 0.029,-0.149 0.073,-0.282 0.134,-0.4 0.058,-0.238 0.102,-0.475 0.133,-0.711 0.029,-0.238 0.044,-0.445 0.044,-0.623 l 0,-0.178 0,-0.177 C 30.93,11.856 30.9,11.796 30.9,11.738 l 0,-0.178 -0.177,-0.622 C 30.425,10.284 30.056,9.573 29.611,8.803 29.167,8.032 28.646,7.232 28.055,6.402 27.461,5.513 26.824,4.624 26.143,3.735 25.461,2.845 24.734,1.956 23.964,1.067 23.667,0.651 23.356,0.251 23.031,-0.133 22.704,-0.52 22.393,-0.889 22.097,-1.245 c -0.178,-0.178 -0.356,-0.371 -0.534,-0.578 -0.177,-0.208 -0.326,-0.4 -0.444,-0.578 -0.178,-0.178 -0.356,-0.356 -0.534,-0.534 -0.177,-0.177 -0.356,-0.355 -0.533,-0.533 -1.245,-1.365 -2.461,-2.61 -3.646,-3.735 -1.187,-1.127 -2.312,-2.074 -3.379,-2.845 -1.067,-0.89 -1.927,-1.497 -2.579,-1.823 -0.653,-0.325 -1.127,-0.34 -1.423,-0.045 L 5.469,-12.005 C 3.274,-7.203 1.452,-3.201 0,0" /></g><g
           transform="translate(172.9517,52.6421)"
           id="g32"><path
             id="path34"
             style="fill:#2290bc;fill-opacity:1;fill-rule:nonzero;stroke:none"
             d="m 0,0 -3.557,0 0.266,0.089 3.558,0 0.177,0 0.267,0 0.089,0 0.089,0 c 0.296,0 0.607,-0.03 0.934,-0.089 0.325,-0.06 0.636,-0.148 0.933,-0.267 0.296,-0.119 0.563,-0.237 0.801,-0.355 0.236,-0.12 0.473,-0.238 0.711,-0.356 0.236,-0.12 0.445,-0.237 0.623,-0.355 0.177,-0.12 0.296,-0.238 0.355,-0.356 l 0.178,-0.356 0,-8.359 -0.356,-0.266 c -0.059,-0.06 -0.164,-0.089 -0.311,-0.089 l -0.4,0 -3.557,0 -0.356,0 -0.355,0 c -0.12,0 -0.253,0.013 -0.401,0.044 -0.148,0.029 -0.281,0.074 -0.399,0.133 -0.298,0.119 -0.579,0.237 -0.845,0.356 -0.267,0.118 -0.549,0.267 -0.845,0.445 -0.238,0.177 -0.415,0.4 -0.534,0.667 -0.119,0.266 -0.177,0.518 -0.177,0.756 l -0.623,8.447 3.557,0 L 0,0 Z m -5.158,-19.296 -0.089,0.089 0,0.178 0.267,0.711 c 0.118,0.118 0.223,0.192 0.312,0.222 0.088,0.03 0.222,0.045 0.399,0.045 l 3.558,0 c 0.177,0 0.384,-0.015 0.622,-0.045 0.236,-0.03 0.474,-0.104 0.711,-0.222 0.296,-0.059 0.578,-0.164 0.845,-0.311 0.267,-0.149 0.518,-0.282 0.756,-0.4 0.058,-0.06 0.118,-0.104 0.178,-0.134 0.058,-0.03 0.118,-0.044 0.178,-0.044 0,-0.06 0.029,-0.104 0.088,-0.133 0.059,-0.031 0.119,-0.045 0.178,-0.045 0.059,-0.06 0.118,-0.104 0.178,-0.133 0.059,-0.031 0.118,-0.044 0.178,-0.044 0.058,-0.061 0.118,-0.105 0.178,-0.134 0.058,-0.031 0.118,-0.075 0.178,-0.134 0.118,-0.059 0.207,-0.119 0.266,-0.177 0.059,-0.06 0.148,-0.089 0.267,-0.089 0.058,-0.06 0.134,-0.12 0.222,-0.178 0.089,-0.06 0.163,-0.12 0.223,-0.178 0.178,-0.06 0.34,-0.133 0.489,-0.222 0.147,-0.089 0.281,-0.193 0.4,-0.311 0.118,-0.06 0.192,-0.209 0.222,-0.445 0.03,-0.237 0.074,-0.534 0.134,-0.889 l 0,-0.534 c 0,-0.178 0.029,-0.386 0.089,-0.622 l 0,-0.623 0,-0.711 0,-0.934 0,-1.023 C 5.809,-27.121 5.78,-27.477 5.78,-27.833 l 0,-1.066 c -0.06,-0.772 -0.104,-1.528 -0.134,-2.268 -0.03,-0.742 -0.044,-1.527 -0.044,-2.356 l -0.089,-0.445 0,-0.445 c -0.06,-0.711 -0.104,-1.422 -0.134,-2.134 -0.03,-0.711 -0.044,-1.423 -0.044,-2.134 -0.06,-0.712 -0.089,-1.394 -0.089,-2.045 l 0,-1.868 0,-1.022 0,-0.934 c 0,-0.297 0.014,-0.578 0.045,-0.845 0.029,-0.267 0.073,-0.52 0.133,-0.755 l 0,-0.267 0.089,-0.356 0,-0.356 0.089,-0.355 0,-0.089 0,-0.267 -0.267,-0.534 c -0.06,-0.058 -0.148,-0.133 -0.267,-0.222 -0.119,-0.089 -0.237,-0.162 -0.355,-0.222 l -0.267,-0.178 -0.178,-0.089 -3.557,0 -0.267,0 -0.177,0 -0.356,0 -0.356,0.089 c -0.238,0.12 -0.475,0.193 -0.711,0.222 -0.238,0.031 -0.445,0.105 -0.623,0.223 -0.119,0.059 -0.222,0.119 -0.311,0.177 -0.089,0.06 -0.193,0.089 -0.311,0.089 -0.06,0.06 -0.12,0.12 -0.178,0.178 -0.06,0.06 -0.119,0.12 -0.178,0.178 l -0.266,0.178 -0.089,0.267 c -0.06,0.177 -0.105,0.444 -0.134,0.8 -0.03,0.355 -0.045,0.8 -0.045,1.334 l 0,1.6 0,1.957 0,0.4 0,0.489 0,0.445 0,0.533 0,1.467 0,1.556 0,1.601 0,1.601 c -0.059,1.718 -0.119,3.348 -0.177,4.89 -0.06,1.541 -0.149,3.024 -0.267,4.446 -0.119,1.423 -0.297,2.535 -0.534,3.335 -0.237,0.801 -0.533,1.289 -0.889,1.468 l 0,0.088 0,0.178 z" /></g><g
           transform="translate(191.4468,41.5269)"
           id="g36"><path
             id="path38"
             style="fill:#2290bc;fill-opacity:1;fill-rule:nonzero;stroke:none"
             d="m 0,0 c 0,1.896 -0.015,3.631 -0.044,5.202 -0.031,1.57 -0.076,2.948 -0.134,4.135 -0.06,1.185 -0.119,2.252 -0.178,3.201 -0.06,0.948 -0.119,1.778 -0.178,2.49 -0.059,0.711 -0.133,1.319 -0.222,1.823 -0.089,0.503 -0.164,0.934 -0.222,1.289 -0.06,0.296 -0.105,0.578 -0.134,0.845 -0.03,0.267 -0.044,0.518 -0.044,0.756 -0.06,0.118 -0.089,0.251 -0.089,0.4 0,0.148 0.029,0.311 0.089,0.489 0.058,0.118 0.134,0.267 0.222,0.445 0.089,0.177 0.163,0.384 0.223,0.622 0.058,0.058 0.133,0.103 0.222,0.134 0.089,0.029 0.192,0.073 0.311,0.133 0.118,0.058 0.252,0.103 0.4,0.133 0.148,0.029 0.281,0.045 0.401,0.045 l 3.556,0 0.222,0 0.223,0 c 0.118,-0.06 0.222,-0.089 0.311,-0.089 l 0.222,0 c 0.178,-0.06 0.356,-0.104 0.534,-0.134 0.178,-0.03 0.356,-0.104 0.534,-0.222 0.414,-0.177 0.8,-0.356 1.155,-0.533 0.356,-0.178 0.712,-0.416 1.068,-0.712 0.355,-0.237 0.651,-0.489 0.889,-0.756 0.236,-0.266 0.385,-0.549 0.444,-0.844 l 0,-0.134 c 0,-0.031 0.03,-0.075 0.089,-0.133 l 0,-0.178 0,-0.267 0,-0.533 0,-0.623 C 9.87,16.153 9.855,15.117 9.826,13.872 9.795,12.627 9.722,11.174 9.604,9.515 9.544,8.684 9.5,7.825 9.47,6.936 9.439,6.047 9.426,5.158 9.426,4.269 9.366,3.319 9.321,2.371 9.292,1.423 9.262,0.474 9.217,-0.504 9.159,-1.512 9.099,-2.165 9.055,-2.832 9.025,-3.512 8.995,-4.194 8.981,-4.861 8.981,-5.513 8.921,-6.225 8.877,-6.922 8.848,-7.603 8.817,-8.285 8.803,-8.952 8.803,-9.604 c -0.059,-1.422 -0.119,-2.845 -0.178,-4.268 -0.06,-1.422 -0.088,-2.816 -0.088,-4.179 -0.06,-1.365 -0.089,-2.683 -0.089,-3.957 l 0,-3.69 c 0,-1.305 0.013,-2.55 0.044,-3.735 0.029,-1.187 0.073,-2.283 0.133,-3.29 0.059,-1.009 0.134,-1.868 0.223,-2.579 0.089,-0.712 0.192,-1.274 0.311,-1.69 0,-0.118 -0.045,-0.236 -0.134,-0.355 -0.088,-0.118 -0.192,-0.207 -0.311,-0.267 -0.119,-0.118 -0.266,-0.192 -0.444,-0.222 -0.178,-0.03 -0.356,-0.045 -0.534,-0.045 L 4.179,-37.97 c -0.059,0.06 -0.148,0.089 -0.266,0.089 -0.06,0.06 -0.12,0.089 -0.178,0.089 l -0.178,0 -0.178,0 -0.178,0 c -0.059,0.06 -0.119,0.089 -0.178,0.089 l -0.178,0 c -0.237,0.06 -0.459,0.104 -0.666,0.133 -0.209,0.031 -0.431,0.105 -0.667,0.223 -0.12,0.059 -0.223,0.104 -0.312,0.133 -0.089,0.031 -0.193,0.045 -0.311,0.045 -0.059,0.059 -0.133,0.104 -0.222,0.133 -0.089,0.031 -0.164,0.075 -0.223,0.133 L 0,-36.636 l 0,0.267 c -0.06,0.355 -0.12,0.741 -0.178,1.156 -0.06,0.414 -0.089,0.829 -0.089,1.245 -0.06,0.473 -0.089,0.933 -0.089,1.378 l 0,1.289 0,1.245 0,1.245 c 0,0.415 0.014,0.83 0.044,1.245 0.03,0.414 0.074,0.83 0.134,1.245 l 0,0.445 0,0.444 0,0.712 c 0,0.236 0.029,0.473 0.089,0.711 l 0,0.712 0,0.711 0,0.711 c 0,0.236 0.029,0.503 0.089,0.8 l 0,0.712 0,0.711 0,0.089 L 0,0 Z" /></g><g
           transform="translate(242.4429,16.0508)"
           id="g40"><path
             id="path42"
             style="fill:#2290bc;fill-opacity:1;fill-rule:nonzero;stroke:none"
             d="m 0,0 c 0.029,0.147 0.045,0.34 0.045,0.578 l 0,0.311 c 0,0.089 0.029,0.192 0.09,0.311 l 0,0.267 0,0.356 c 0,0.356 -0.016,0.74 -0.045,1.156 -0.031,0.414 -0.075,0.829 -0.134,1.245 -0.06,0.414 -0.104,0.829 -0.134,1.245 -0.03,0.414 -0.074,0.829 -0.133,1.244 -0.059,0.237 -0.104,0.459 -0.133,0.667 -0.031,0.207 -0.076,0.43 -0.133,0.667 -0.061,0.178 -0.105,0.37 -0.134,0.578 -0.03,0.208 -0.045,0.43 -0.045,0.667 -0.593,0.83 -1.215,1.557 -1.867,2.179 -0.652,0.622 -1.364,1.112 -2.134,1.467 -0.533,0.236 -1.067,0.445 -1.601,0.623 -0.533,0.177 -1.038,0.295 -1.512,0.356 -0.711,-0.061 -1.393,-0.194 -2.045,-0.401 -0.653,-0.208 -1.304,-0.431 -1.956,-0.667 -0.949,-0.415 -1.794,-0.83 -2.534,-1.245 -0.742,-0.415 -1.438,-0.86 -2.09,-1.333 l -0.533,-0.534 -0.534,-0.445 c -0.593,-0.593 -1.142,-1.245 -1.645,-1.956 -0.504,-0.711 -0.964,-1.482 -1.378,-2.312 -0.416,-0.831 -0.742,-1.675 -0.978,-2.534 -0.238,-0.86 -0.416,-1.705 -0.534,-2.534 -0.06,-0.12 -0.089,-0.238 -0.089,-0.356 l 0,-0.356 0,-0.266 0,-0.179 0,-0.177 0,-0.845 c 0,-0.267 0.029,-0.549 0.089,-0.845 0.058,-0.238 0.118,-0.489 0.178,-0.756 0.058,-0.266 0.118,-0.549 0.178,-0.844 0.296,-0.712 0.68,-1.334 1.156,-1.868 0.474,-0.533 1.096,-0.978 1.867,-1.334 0.533,-0.237 1.096,-0.43 1.69,-0.578 0.591,-0.148 1.185,-0.253 1.778,-0.311 l 0.267,0 0.267,0 c 0.058,0 0.133,0.014 0.222,0.045 0.089,0.029 0.162,0.044 0.222,0.044 0.474,0.118 0.979,0.236 1.512,0.356 0.533,0.118 1.067,0.267 1.6,0.444 1.008,0.296 2.031,0.696 3.068,1.201 1.037,0.502 2.03,1.051 2.98,1.645 1.007,0.651 1.911,1.348 2.712,2.089 0.799,0.741 1.555,1.557 2.267,2.446 l 0,0.089 C -0.074,-0.282 -0.029,-0.149 0,0 m 3.38,13.027 c 0.029,0 0.073,0.029 0.133,0.089 l 0.178,0 c 0.118,0 0.222,0.014 0.311,0.045 0.089,0.028 0.192,0.073 0.311,0.133 0.059,0.058 0.148,0.102 0.267,0.133 0.118,0.03 0.207,0.074 0.267,0.134 l 3.557,0 0.089,-0.534 0,-0.178 c 0,-0.059 0.028,-0.148 0.089,-0.266 l 0,-0.178 0,-0.267 C 8.64,11.604 8.7,10.967 8.76,10.226 8.818,9.484 8.878,8.67 8.938,7.781 8.996,6.832 9.07,5.898 9.16,4.979 9.249,4.06 9.352,3.097 9.471,2.09 9.589,0.607 9.767,-0.8 10.005,-2.134 c 0.235,-1.334 0.533,-2.594 0.889,-3.78 0.295,-1.244 0.696,-2.164 1.2,-2.756 0.503,-0.593 1.052,-0.889 1.645,-0.889 l 0.089,0 0.178,0 c 0.178,-0.12 0.311,-0.253 0.4,-0.4 0.089,-0.149 0.103,-0.282 0.044,-0.4 -0.059,-0.12 -0.163,-0.238 -0.31,-0.356 -0.15,-0.119 -0.312,-0.237 -0.49,-0.356 -0.177,-0.118 -0.371,-0.236 -0.578,-0.356 -0.208,-0.118 -0.46,-0.236 -0.756,-0.355 -0.119,-0.059 -0.237,-0.118 -0.355,-0.178 -0.12,-0.059 -0.237,-0.118 -0.356,-0.178 -0.178,-0.058 -0.327,-0.118 -0.445,-0.178 -0.119,-0.058 -0.237,-0.118 -0.355,-0.178 -0.178,-0.058 -0.342,-0.103 -0.49,-0.133 -0.148,-0.029 -0.282,-0.074 -0.399,-0.133 -0.179,0 -0.342,-0.014 -0.489,-0.045 -0.15,-0.029 -0.282,-0.073 -0.401,-0.133 C 8.789,-13.056 8.551,-13.13 8.315,-13.161 8.077,-13.19 7.87,-13.205 7.692,-13.205 l -3.556,-0.089 -0.533,0.089 -0.179,0.178 c -0.178,0.297 -0.326,0.622 -0.445,0.978 -0.119,0.356 -0.237,0.742 -0.355,1.156 -0.06,0.414 -0.134,0.859 -0.223,1.334 -0.088,0.474 -0.193,0.978 -0.31,1.512 l -0.09,0.177 0,0.267 C 1.941,-7.247 1.882,-6.907 1.823,-6.581 1.764,-6.255 1.675,-5.944 1.557,-5.646 1.082,-6.062 0.548,-6.462 -0.044,-6.847 -0.638,-7.233 -1.289,-7.603 -2,-7.958 -3.482,-8.67 -4.994,-9.263 -6.536,-9.737 c -1.542,-0.475 -3.112,-0.86 -4.713,-1.156 -0.652,-0.059 -1.304,-0.133 -1.956,-0.222 -0.653,-0.089 -1.304,-0.163 -1.956,-0.223 -0.593,-0.058 -1.2,-0.102 -1.823,-0.133 -0.622,-0.029 -1.231,-0.045 -1.823,-0.045 l -3.557,-0.088 c -0.593,0.059 -1.156,0.104 -1.689,0.133 -0.534,0.031 -1.038,0.075 -1.512,0.133 -0.475,0.06 -0.934,0.134 -1.378,0.223 -0.445,0.089 -0.845,0.163 -1.201,0.222 -0.889,0.296 -1.645,0.667 -2.267,1.111 -0.623,0.445 -1.112,0.963 -1.467,1.556 -0.416,0.534 -0.712,1.112 -0.89,1.735 -0.177,0.622 -0.267,1.289 -0.267,2 0,0.534 0.045,1.068 0.134,1.601 0.089,0.534 0.222,1.096 0.4,1.689 0.178,0.534 0.385,1.097 0.623,1.69 0.236,0.592 0.533,1.185 0.889,1.779 0.829,1.362 1.837,2.711 3.023,4.045 1.185,1.334 2.519,2.653 4.002,3.958 1.541,1.245 3.081,2.341 4.624,3.29 1.541,0.947 3.141,1.718 4.801,2.312 0.474,0.177 0.963,0.34 1.468,0.489 0.503,0.147 0.992,0.251 1.467,0.311 0.474,0.118 0.963,0.192 1.467,0.222 0.503,0.029 0.992,0.044 1.467,0.044 l 3.558,0 c 0.829,0 1.63,-0.088 2.4,-0.266 0.77,-0.178 1.512,-0.416 2.224,-0.712 0.651,-0.297 1.302,-0.697 1.956,-1.2 0.651,-0.504 1.245,-1.082 1.778,-1.734 l 0.134,0 z" /></g><g
           transform="translate(266.186,9.6484)"
           id="g44"><path
             id="path46"
             style="fill:#2290bc;fill-opacity:1;fill-rule:nonzero;stroke:none"
             d="m 0,0 c 0.028,0.74 0.073,1.496 0.133,2.268 l 0,1.111 c 0,0.385 0.029,0.756 0.089,1.111 l 0,1.068 0,1.067 0,0.933 0,0.934 C 0.162,8.788 0.133,9.099 0.133,9.426 l 0,0.933 0,0.845 0,0.845 c -0.06,0.236 -0.089,0.503 -0.089,0.8 l 0,0.8 c -0.06,0.474 -0.105,0.948 -0.134,1.423 -0.03,0.474 -0.044,0.919 -0.044,1.334 l 0,1.245 0,1.067 c 0,0.533 0.014,1.008 0.044,1.423 0.029,0.414 0.074,0.74 0.134,0.978 0.118,0.296 0.236,0.518 0.355,0.667 0.119,0.147 0.296,0.222 0.535,0.222 l 0.088,0 0.178,0 0.356,0 0.266,0.089 3.557,0 0.356,0 0.267,0 c 0.711,0 1.334,-0.06 1.867,-0.178 C 8.402,21.8 8.787,21.593 9.025,21.297 9.321,21.059 9.543,20.719 9.692,20.274 9.839,19.83 9.914,19.34 9.914,18.807 9.914,18.273 9.87,17.695 9.781,17.073 9.692,16.451 9.588,15.784 9.47,15.072 9.351,14.479 9.217,13.827 9.069,13.116 8.921,12.404 8.787,11.663 8.67,10.893 c 0.711,0.889 1.407,1.748 2.089,2.579 0.681,0.829 1.319,1.6 1.912,2.312 0.651,0.711 1.185,1.362 1.6,1.956 0.415,0.592 0.741,1.096 0.979,1.511 l -0.089,0.268 0,0.355 c 0,0.178 0.014,0.355 0.044,0.534 0.029,0.177 0.074,0.384 0.134,0.622 0.058,0.178 0.133,0.385 0.222,0.622 0.088,0.237 0.163,0.474 0.222,0.712 0.178,0.473 0.414,0.903 0.711,1.289 0.297,0.385 0.623,0.785 0.979,1.201 0.355,0.355 0.712,0.636 1.067,0.844 0.356,0.207 0.711,0.312 1.066,0.312 l 3.558,0 0.178,0 c 0.058,0 0.118,-0.031 0.178,-0.089 0.118,-0.06 0.207,-0.089 0.266,-0.089 0.059,0 0.118,-0.016 0.178,-0.044 0.058,-0.031 0.118,-0.045 0.178,-0.045 0,-0.06 0.029,-0.104 0.088,-0.134 0.059,-0.03 0.119,-0.044 0.179,-0.044 0.117,-1.482 0.296,-2.787 0.533,-3.913 0.237,-1.126 0.503,-2.045 0.8,-2.756 0.296,-0.711 0.623,-1.32 0.979,-1.823 0.355,-0.504 0.711,-0.905 1.067,-1.2 0.236,-0.178 0.474,-0.327 0.711,-0.445 0.236,-0.119 0.474,-0.208 0.712,-0.267 0.235,-0.059 0.458,-0.104 0.667,-0.133 0.207,-0.031 0.399,-0.045 0.577,-0.045 l 0.178,0 0.179,0 c 0.057,-0.06 0.118,-0.088 0.177,-0.088 l 0.178,0 c 0.118,-0.061 0.191,-0.134 0.222,-0.223 0.029,-0.089 0.045,-0.193 0.045,-0.311 -0.12,-0.298 -0.297,-0.564 -0.534,-0.8 -0.238,-0.238 -0.534,-0.416 -0.889,-0.534 -0.356,-0.178 -0.711,-0.298 -1.068,-0.356 -0.355,-0.06 -0.77,-0.088 -1.244,-0.088 l -3.557,0 -0.534,0 -0.533,0 c -0.178,0 -0.356,0.028 -0.534,0.088 -0.178,0.058 -0.355,0.119 -0.533,0.178 -0.711,0.118 -1.378,0.311 -2.001,0.578 -0.622,0.267 -1.231,0.578 -1.822,0.934 l -0.089,0.089 c -0.061,0 -0.12,0.029 -0.179,0.089 l 0,-0.089 c -0.06,0 -0.089,-0.031 -0.089,-0.089 -0.119,-0.178 -0.253,-0.371 -0.399,-0.578 -0.15,-0.209 -0.283,-0.4 -0.401,-0.578 -0.177,-0.238 -0.341,-0.445 -0.489,-0.622 -0.148,-0.179 -0.282,-0.356 -0.4,-0.534 -0.119,-0.178 -0.253,-0.371 -0.4,-0.578 -0.149,-0.209 -0.282,-0.4 -0.4,-0.578 C 15.161,10.655 14.997,10.448 14.85,10.271 14.701,10.093 14.567,9.915 14.449,9.737 13.738,8.728 13.056,7.691 12.404,6.625 11.751,5.558 11.1,4.431 10.448,3.246 9.795,2.119 9.232,0.903 8.759,-0.4 8.283,-1.705 7.898,-3.068 7.603,-4.491 l -0.267,0 -0.267,-0.089 -0.356,-0.088 -3.557,0 -0.266,0 c -0.476,0.059 -0.92,0.119 -1.334,0.177 -0.415,0.059 -0.801,0.207 -1.157,0.445 -0.355,0.236 -0.578,0.489 -0.667,0.756 -0.088,0.267 -0.044,0.547 0.134,0.845 l 0,0.089 C -0.075,-1.527 -0.031,-0.742 0,0" /></g><g
           transform="translate(331.811,16.0508)"
           id="g48"><path
             id="path50"
             style="fill:#2290bc;fill-opacity:1;fill-rule:nonzero;stroke:none"
             d="m 0,0 c 0.029,0.147 0.044,0.34 0.044,0.578 l 0,0.311 c 0,0.089 0.029,0.192 0.089,0.311 l 0,0.267 0,0.356 c 0,0.356 -0.015,0.74 -0.044,1.156 C 0.058,3.393 0.014,3.808 -0.045,4.224 -0.104,4.638 -0.149,5.053 -0.178,5.469 -0.209,5.883 -0.253,6.298 -0.312,6.713 -0.371,6.95 -0.416,7.172 -0.445,7.38 -0.476,7.587 -0.52,7.81 -0.578,8.047 c -0.06,0.178 -0.105,0.37 -0.134,0.578 -0.03,0.208 -0.044,0.43 -0.044,0.667 -0.594,0.83 -1.216,1.557 -1.867,2.179 -0.653,0.622 -1.365,1.112 -2.135,1.467 -0.533,0.236 -1.066,0.445 -1.6,0.623 -0.534,0.177 -1.038,0.295 -1.512,0.356 -0.711,-0.061 -1.394,-0.194 -2.045,-0.401 -0.653,-0.208 -1.305,-0.431 -1.956,-0.667 -0.949,-0.415 -1.794,-0.83 -2.534,-1.245 -0.742,-0.415 -1.439,-0.86 -2.09,-1.333 l -0.534,-0.534 -0.533,-0.445 c -0.593,-0.593 -1.142,-1.245 -1.645,-1.956 -0.505,-0.711 -0.965,-1.482 -1.379,-2.312 -0.415,-0.831 -0.742,-1.675 -0.977,-2.534 -0.239,-0.86 -0.416,-1.705 -0.535,-2.534 -0.059,-0.12 -0.089,-0.238 -0.089,-0.356 l 0,-0.356 0,-0.266 0,-0.179 0,-0.177 0,-0.845 c 0,-0.267 0.03,-0.549 0.089,-0.845 0.059,-0.238 0.119,-0.489 0.178,-0.756 0.059,-0.266 0.118,-0.549 0.178,-0.844 0.296,-0.712 0.681,-1.334 1.156,-1.868 0.474,-0.533 1.097,-0.978 1.867,-1.334 0.534,-0.237 1.097,-0.43 1.69,-0.578 0.592,-0.148 1.185,-0.253 1.779,-0.311 l 0.267,0 0.266,0 c 0.059,0 0.133,0.014 0.222,0.045 0.09,0.029 0.163,0.044 0.223,0.044 0.473,0.118 0.978,0.236 1.511,0.356 0.533,0.118 1.068,0.267 1.601,0.444 1.008,0.296 2.03,0.696 3.068,1.201 1.036,0.502 2.03,1.051 2.979,1.645 1.007,0.651 1.912,1.348 2.712,2.089 0.8,0.741 1.556,1.557 2.267,2.446 l 0,0.089 C -0.075,-0.282 -0.031,-0.149 0,0 m 3.379,13.027 c 0.029,0 0.073,0.029 0.133,0.089 l 0.178,0 c 0.118,0 0.222,0.014 0.311,0.045 0.089,0.028 0.192,0.073 0.311,0.133 0.059,0.058 0.148,0.102 0.267,0.133 0.118,0.03 0.207,0.074 0.267,0.134 l 3.557,0 0.089,-0.534 0,-0.178 c 0,-0.059 0.029,-0.148 0.089,-0.266 l 0,-0.178 0,-0.267 C 8.639,11.604 8.699,10.967 8.759,10.226 8.817,9.484 8.877,8.67 8.937,7.781 8.995,6.832 9.069,5.898 9.159,4.979 9.248,4.06 9.351,3.097 9.47,2.09 9.588,0.607 9.766,-0.8 10.004,-2.134 c 0.235,-1.334 0.533,-2.594 0.889,-3.78 0.295,-1.244 0.696,-2.164 1.2,-2.756 0.503,-0.593 1.052,-0.889 1.645,-0.889 l 0.089,0 0.178,0 c 0.178,-0.12 0.311,-0.253 0.4,-0.4 0.089,-0.149 0.103,-0.282 0.044,-0.4 -0.059,-0.12 -0.163,-0.238 -0.31,-0.356 -0.15,-0.119 -0.312,-0.237 -0.49,-0.356 -0.177,-0.118 -0.371,-0.236 -0.578,-0.356 -0.208,-0.118 -0.46,-0.236 -0.756,-0.355 -0.119,-0.059 -0.237,-0.118 -0.355,-0.178 -0.12,-0.059 -0.237,-0.118 -0.356,-0.178 -0.178,-0.058 -0.327,-0.118 -0.445,-0.178 -0.119,-0.058 -0.237,-0.118 -0.355,-0.178 -0.178,-0.058 -0.342,-0.103 -0.49,-0.133 -0.148,-0.029 -0.282,-0.074 -0.399,-0.133 -0.179,0 -0.342,-0.014 -0.489,-0.045 -0.15,-0.029 -0.282,-0.073 -0.401,-0.133 C 8.788,-13.056 8.55,-13.13 8.314,-13.161 8.076,-13.19 7.869,-13.205 7.691,-13.205 l -3.556,-0.089 -0.533,0.089 -0.179,0.178 c -0.178,0.297 -0.326,0.622 -0.444,0.978 -0.12,0.356 -0.238,0.742 -0.356,1.156 -0.06,0.414 -0.134,0.859 -0.223,1.334 -0.088,0.474 -0.193,0.978 -0.31,1.512 L 2,-7.87 2,-7.603 C 1.94,-7.247 1.881,-6.907 1.822,-6.581 1.763,-6.255 1.674,-5.944 1.556,-5.646 1.081,-6.062 0.547,-6.462 -0.045,-6.847 -0.638,-7.233 -1.29,-7.603 -2.001,-7.958 -3.483,-8.67 -4.995,-9.263 -6.536,-9.737 c -1.542,-0.475 -3.112,-0.86 -4.713,-1.156 -0.653,-0.059 -1.305,-0.133 -1.956,-0.222 -0.653,-0.089 -1.305,-0.163 -1.956,-0.223 -0.594,-0.058 -1.201,-0.102 -1.823,-0.133 -0.622,-0.029 -1.232,-0.045 -1.824,-0.045 l -3.556,-0.088 c -0.594,0.059 -1.157,0.104 -1.69,0.133 -0.533,0.031 -1.038,0.075 -1.511,0.133 -0.476,0.06 -0.934,0.134 -1.378,0.223 -0.446,0.089 -0.845,0.163 -1.202,0.222 -0.888,0.296 -1.644,0.667 -2.267,1.111 -0.622,0.445 -1.111,0.963 -1.467,1.556 -0.415,0.534 -0.712,1.112 -0.89,1.735 -0.177,0.622 -0.266,1.289 -0.266,2 0,0.534 0.045,1.068 0.134,1.601 0.088,0.534 0.221,1.096 0.4,1.689 0.178,0.534 0.385,1.097 0.622,1.69 0.236,0.592 0.533,1.185 0.89,1.779 0.829,1.362 1.836,2.711 3.022,4.045 1.186,1.334 2.52,2.653 4.002,3.958 1.541,1.245 3.082,2.341 4.624,3.29 1.541,0.947 3.142,1.718 4.802,2.312 0.474,0.177 0.963,0.34 1.467,0.489 0.503,0.147 0.992,0.251 1.468,0.311 0.473,0.118 0.962,0.192 1.466,0.222 0.503,0.029 0.992,0.044 1.468,0.044 l 3.557,0 c 0.829,0 1.63,-0.088 2.4,-0.266 0.771,-0.178 1.512,-0.416 2.224,-0.712 0.651,-0.297 1.302,-0.697 1.956,-1.2 0.651,-0.504 1.245,-1.082 1.778,-1.734 l 0.134,0 z" /></g><g
           transform="translate(353.8628,31.9233)"
           id="g52"><path
             id="path54"
             style="fill:#2290bc;fill-opacity:1;fill-rule:nonzero;stroke:none"
             d="m 0,0 c -0.03,0.059 -0.044,0.118 -0.044,0.178 -0.06,0 -0.089,0.029 -0.089,0.089 l 0,0.178 -0.089,0.533 0.267,0.711 c 0.118,0.119 0.251,0.192 0.4,0.223 0.148,0.029 0.311,0.045 0.49,0.045 l 3.556,0 0.178,0 0.267,0 C 4.994,1.896 5.069,1.867 5.158,1.867 l 0.222,0 C 5.498,1.808 5.647,1.763 5.825,1.734 6.003,1.704 6.181,1.659 6.358,1.601 6.477,1.541 6.581,1.497 6.67,1.467 6.759,1.437 6.861,1.392 6.98,1.334 7.039,1.274 7.128,1.229 7.248,1.201 7.365,1.17 7.455,1.125 7.515,1.067 7.633,1.007 7.736,0.948 7.825,0.889 7.914,0.83 7.988,0.8 8.048,0.8 8.166,0.741 8.271,0.681 8.359,0.623 8.448,0.562 8.521,0.503 8.581,0.445 L 9.026,0.089 9.293,-0.267 C 9.411,-0.327 9.5,-0.4 9.56,-0.489 9.618,-0.578 9.678,-0.711 9.737,-0.889 9.796,-1.067 9.84,-1.275 9.871,-1.512 9.9,-1.749 9.915,-2.016 9.915,-2.312 9.915,-2.846 9.885,-3.423 9.826,-4.046 9.767,-4.668 9.678,-5.335 9.56,-6.047 9.5,-6.402 9.44,-6.758 9.382,-7.114 9.322,-7.469 9.293,-7.856 9.293,-8.27 9.233,-8.625 9.173,-8.997 9.115,-9.381 9.056,-9.768 8.995,-10.167 8.938,-10.582 l -0.089,-0.178 0,-0.089 c 1.302,2.015 2.563,3.66 3.778,4.936 1.215,1.274 2.415,2.207 3.602,2.801 1.836,0.947 3.423,1.659 4.757,2.134 1.334,0.474 2.415,0.711 3.245,0.711 l 3.558,0 0.178,0 0.178,0 0.266,0 0.444,0 0.089,0 0.178,0 c 0.89,0 1.659,-0.311 2.313,-0.933 0.651,-0.623 1.185,-1.556 1.6,-2.801 0.414,-1.246 0.8,-2.55 1.156,-3.913 0.356,-1.364 0.652,-2.816 0.889,-4.357 l 0,-0.267 c 0,-0.12 0.029,-0.209 0.089,-0.267 0,-0.119 0.015,-0.222 0.045,-0.311 0.029,-0.089 0.044,-0.193 0.044,-0.311 l 0,-0.267 c 0,-0.119 0.029,-0.208 0.089,-0.267 0,-0.119 0.014,-0.222 0.045,-0.311 0.029,-0.089 0.044,-0.193 0.044,-0.311 0.178,-1.127 0.385,-2.209 0.623,-3.246 0.236,-1.038 0.473,-2.001 0.711,-2.89 0.236,-0.949 0.518,-1.705 0.844,-2.267 0.325,-0.564 0.697,-0.934 1.113,-1.112 0.295,-0.119 0.533,-0.253 0.711,-0.4 0.177,-0.149 0.295,-0.282 0.355,-0.4 0.118,-0.178 0.178,-0.342 0.178,-0.489 0,-0.149 -0.031,-0.282 -0.089,-0.401 -0.119,-0.237 -0.297,-0.46 -0.533,-0.667 -0.238,-0.208 -0.534,-0.369 -0.89,-0.488 -0.178,-0.119 -0.355,-0.207 -0.533,-0.267 -0.178,-0.059 -0.356,-0.147 -0.533,-0.267 -0.239,-0.058 -0.446,-0.133 -0.623,-0.222 -0.178,-0.089 -0.356,-0.163 -0.534,-0.222 -0.237,-0.059 -0.46,-0.103 -0.667,-0.134 -0.208,-0.029 -0.4,-0.073 -0.578,-0.133 l -0.221,0 c -0.09,0 -0.194,-0.03 -0.312,-0.089 l -0.223,0 -0.221,0 -3.558,-0.089 c -0.237,0.059 -0.46,0.104 -0.667,0.133 -0.208,0.031 -0.37,0.075 -0.488,0.133 -0.179,0.06 -0.298,0.149 -0.357,0.267 -0.059,0.12 -0.089,0.267 -0.089,0.445 -0.059,0.415 -0.164,0.918 -0.31,1.512 -0.149,0.591 -0.312,1.334 -0.489,2.223 -0.06,0.473 -0.149,0.933 -0.267,1.378 -0.12,0.444 -0.209,0.874 -0.268,1.289 -0.119,0.474 -0.221,0.948 -0.31,1.423 -0.089,0.474 -0.193,0.948 -0.312,1.423 -0.059,0.236 -0.119,0.473 -0.177,0.711 -0.06,0.237 -0.119,0.474 -0.178,0.712 -0.06,0.296 -0.12,0.578 -0.178,0.844 -0.059,0.267 -0.12,0.519 -0.178,0.756 -0.178,0.534 -0.341,1.067 -0.489,1.601 -0.148,0.534 -0.282,1.067 -0.4,1.6 -0.119,0.474 -0.237,0.934 -0.356,1.379 -0.12,0.444 -0.237,0.845 -0.355,1.2 -0.238,0.889 -0.534,1.645 -0.89,2.268 -0.355,0.622 -0.742,1.14 -1.156,1.556 -0.06,0.058 -0.133,0.118 -0.222,0.178 -0.089,0.058 -0.164,0.118 -0.222,0.177 -0.119,0.059 -0.208,0.118 -0.267,0.179 -0.06,0.058 -0.148,0.118 -0.267,0.177 -0.12,-0.059 -0.252,-0.119 -0.4,-0.177 -0.148,-0.061 -0.282,-0.149 -0.4,-0.268 -0.534,-0.297 -1.053,-0.652 -1.556,-1.066 -0.505,-0.416 -0.994,-0.89 -1.468,-1.423 -0.888,-0.949 -1.733,-2.001 -2.534,-3.157 -0.8,-1.156 -1.616,-2.416 -2.445,-3.779 -0.772,-1.423 -1.512,-2.846 -2.223,-4.268 -0.712,-1.423 -1.334,-2.906 -1.868,-4.447 -0.06,-0.177 -0.133,-0.355 -0.222,-0.533 -0.089,-0.178 -0.164,-0.356 -0.222,-0.534 -0.06,-0.059 -0.105,-0.133 -0.133,-0.222 -0.031,-0.089 -0.045,-0.164 -0.045,-0.222 -0.06,-0.12 -0.105,-0.208 -0.134,-0.267 -0.03,-0.06 -0.044,-0.148 -0.044,-0.267 -0.059,-0.119 -0.148,-0.222 -0.266,-0.311 -0.121,-0.089 -0.239,-0.193 -0.356,-0.311 -0.061,-0.06 -0.134,-0.105 -0.223,-0.133 -0.088,-0.031 -0.164,-0.045 -0.222,-0.045 l -0.267,0 -0.266,0 -3.557,0 -0.178,0 -0.09,0 c -0.297,0 -0.577,0.045 -0.844,0.133 -0.267,0.089 -0.52,0.192 -0.756,0.311 -0.238,0.119 -0.415,0.267 -0.533,0.445 -0.12,0.178 -0.178,0.385 -0.178,0.623 l 0,1.422 0,1.423 0,1.467 c 0,0.503 0.029,1.023 0.089,1.556 l 0,1.468 0,1.556 0,0.711 c 0,0.237 0.029,0.503 0.089,0.801 l 0,0.711 0,0.711 0,0.934 c 0,0.325 0.029,0.636 0.088,0.934 l 0,0.933 0,0.934 0,0.845 c 0,0.267 0.03,0.547 0.089,0.845 l 0,0.8 0,0.8 0,0.978 0,0.89 C 0.43,-3.706 0.4,-3.423 0.4,-3.157 l 0,0.756 C 0.341,-1.927 0.296,-1.512 0.268,-1.156 0.236,-0.8 0.192,-0.504 0.134,-0.267 l 0,0.089 C 0.074,-0.12 0.029,-0.06 0,0" /></g><g
           transform="translate(414.4185,30.3228)"
           id="g56"><path
             id="path58"
             style="fill:#2290bc;fill-opacity:1;fill-rule:nonzero;stroke:none"
             d="m 0,0 c 0.089,0 0.191,0.029 0.311,0.089 0.058,0 0.147,0.014 0.267,0.044 0.118,0.03 0.207,0.045 0.267,0.045 l 0.533,0 0.311,0 c 0.089,0 0.192,0.029 0.312,0.089 l 0.488,0 c 0.148,0 0.312,0.029 0.49,0.088 l 0.444,0 0.534,0 0.533,0 c 0.178,0 0.325,0.03 0.445,0.09 l 0.489,0 0.4,0 3.557,0 c 0.296,0 0.578,-0.016 0.845,-0.045 0.266,-0.03 0.518,-0.075 0.755,-0.133 l 0.623,-0.356 C 11.427,-0.623 11.07,-1.067 10.537,-1.423 10.004,-1.778 9.292,-2.045 8.403,-2.223 7.514,-2.46 6.282,-2.623 4.713,-2.712 3.142,-2.801 1.229,-2.846 -1.022,-2.846 l 0,-2.312 0,-2.578 0,-2.801 0,-2.89 0,-3.646 0,-3.468 0,-3.023 0,-2.224 c 0,-0.118 -0.045,-0.236 -0.134,-0.355 -0.089,-0.118 -0.223,-0.207 -0.401,-0.267 -0.177,-0.058 -0.371,-0.103 -0.578,-0.133 -0.208,-0.03 -0.43,-0.045 -0.667,-0.045 l -3.556,-0.089 -0.534,0 -0.533,0.089 c -0.356,0.12 -0.698,0.222 -1.023,0.312 -0.326,0.089 -0.638,0.193 -0.934,0.311 -0.237,0.119 -0.431,0.253 -0.578,0.4 -0.148,0.148 -0.222,0.282 -0.222,0.4 0,0.236 0.014,0.667 0.044,1.29 0.03,0.622 0.075,1.467 0.134,2.534 0.118,1.007 0.223,2.074 0.312,3.201 0.088,1.125 0.162,2.312 0.221,3.557 l 0,0.355 0.089,0.356 c 0.059,1.185 0.118,2.326 0.178,3.424 0.058,1.096 0.118,2.178 0.179,3.245 0.117,1.008 0.191,1.882 0.221,2.623 0.03,0.741 0.045,1.319 0.045,1.734 l -0.178,0 c -0.06,0 -0.088,0.03 -0.088,0.09 l -0.179,0 -0.178,0 -0.178,0 c -0.059,0 -0.088,0.028 -0.088,0.089 l -0.178,0 -0.178,0 -0.355,0 -0.357,0 -0.533,0 -0.533,0 -0.446,0 c -0.77,0 -1.497,0.028 -2.177,0.088 -0.683,0.058 -1.29,0.147 -1.824,0.267 -0.593,0.118 -1.022,0.414 -1.289,0.889 -0.267,0.474 -0.4,1.096 -0.4,1.868 l 0,0.178 0.089,0.266 0,0.178 0,0.267 0.267,0.267 0.355,0.088 3.558,0 c 0.117,0 0.28,-0.015 0.488,-0.044 0.207,-0.03 0.43,-0.104 0.667,-0.222 0.118,-0.06 0.236,-0.105 0.356,-0.133 0.117,-0.031 0.236,-0.045 0.356,-0.045 0.178,-0.06 0.325,-0.104 0.444,-0.134 0.118,-0.03 0.267,-0.074 0.444,-0.133 0.296,-0.06 0.579,-0.133 0.845,-0.222 0.268,-0.089 0.548,-0.194 0.845,-0.311 0.058,0 0.103,0.013 0.134,0.044 0.029,0.029 0.073,0.045 0.133,0.045 0.058,0.058 0.118,0.089 0.178,0.089 0.058,0.236 0.103,0.488 0.133,0.755 0.029,0.267 0.045,0.548 0.045,0.845 l 0,0.889 0,0.889 0,0.534 0,0.533 c -0.06,0.179 -0.089,0.37 -0.089,0.578 l 0,0.579 0,0.533 0,0.622 c -0.059,0.179 -0.089,0.37 -0.089,0.578 l 0,0.579 c -0.06,0.296 -0.104,0.591 -0.134,0.889 -0.03,0.296 -0.044,0.592 -0.044,0.889 l 0,0.489 0,0.489 c -0.06,0.118 -0.088,0.251 -0.088,0.4 l 0,0.49 c -0.061,0.651 -0.121,1.274 -0.179,1.867 -0.06,0.592 -0.119,1.156 -0.178,1.689 -0.059,0.534 -0.089,1.008 -0.089,1.423 l 0,0.978 c 0.059,0.059 0.118,0.103 0.178,0.133 0.059,0.03 0.118,0.045 0.178,0.045 0,0.058 0.029,0.103 0.09,0.133 0.057,0.029 0.117,0.045 0.177,0.045 0.119,0.058 0.236,0.103 0.356,0.133 0.118,0.029 0.236,0.074 0.355,0.134 l 3.557,0 c 0.296,0 0.592,-0.06 0.89,-0.178 0.295,-0.12 0.622,-0.267 0.978,-0.445 0.178,-0.059 0.34,-0.148 0.488,-0.266 0.148,-0.12 0.312,-0.209 0.49,-0.268 0.177,-0.119 0.355,-0.222 0.533,-0.311 0.179,-0.088 0.356,-0.193 0.534,-0.311 l 0.178,-0.178 0.177,-0.089 C -0.134,16.598 0.044,16.451 0.222,16.273 0.4,16.095 0.518,15.887 0.578,15.65 0.696,15.413 0.77,15.146 0.8,14.85 0.829,14.553 0.845,14.228 0.845,13.872 0.845,13.516 0.829,13.13 0.8,12.716 0.77,12.3 0.725,11.856 0.667,11.382 0.606,11.145 0.562,10.907 0.533,10.671 0.503,10.433 0.489,10.195 0.489,9.959 0.429,9.722 0.385,9.484 0.355,9.248 0.325,9.01 0.28,8.773 0.222,8.537 0.162,8.121 0.103,7.721 0.044,7.336 -0.016,6.95 -0.075,6.55 -0.134,6.136 -0.193,5.72 -0.238,5.32 -0.267,4.935 -0.298,4.549 -0.312,4.149 -0.312,3.735 -0.371,3.557 -0.4,3.393 -0.4,3.246 l 0,-0.4 0,-0.401 0,-0.4 0,-0.533 0,-0.534 0,-0.533 c 0,-0.178 0.029,-0.356 0.088,-0.534 l -3.556,0 0,0.089 3.556,0 L 0,0 Z" /></g><g
           transform="translate(458.8794,16.0508)"
           id="g60"><path
             id="path62"
             style="fill:#2290bc;fill-opacity:1;fill-rule:nonzero;stroke:none"
             d="m 0,0 c 0.029,0.147 0.044,0.34 0.044,0.578 l 0,0.311 c 0,0.089 0.029,0.192 0.089,0.311 l 0,0.267 0,0.356 c 0,0.356 -0.015,0.74 -0.044,1.156 C 0.058,3.393 0.014,3.808 -0.045,4.224 -0.104,4.638 -0.149,5.053 -0.178,5.469 -0.209,5.883 -0.253,6.298 -0.312,6.713 -0.371,6.95 -0.416,7.172 -0.445,7.38 -0.476,7.587 -0.52,7.81 -0.578,8.047 c -0.06,0.178 -0.105,0.37 -0.134,0.578 -0.03,0.208 -0.044,0.43 -0.044,0.667 -0.594,0.83 -1.216,1.557 -1.867,2.179 -0.653,0.622 -1.365,1.112 -2.135,1.467 -0.533,0.236 -1.066,0.445 -1.6,0.623 -0.534,0.177 -1.038,0.295 -1.512,0.356 -0.711,-0.061 -1.394,-0.194 -2.045,-0.401 -0.653,-0.208 -1.305,-0.431 -1.956,-0.667 -0.949,-0.415 -1.794,-0.83 -2.534,-1.245 -0.742,-0.415 -1.439,-0.86 -2.09,-1.333 l -0.534,-0.534 -0.533,-0.445 c -0.593,-0.593 -1.142,-1.245 -1.645,-1.956 -0.505,-0.711 -0.965,-1.482 -1.379,-2.312 -0.415,-0.831 -0.742,-1.675 -0.977,-2.534 -0.239,-0.86 -0.416,-1.705 -0.535,-2.534 -0.059,-0.12 -0.089,-0.238 -0.089,-0.356 l 0,-0.356 0,-0.266 0,-0.179 0,-0.177 0,-0.845 c 0,-0.267 0.03,-0.549 0.089,-0.845 0.059,-0.238 0.119,-0.489 0.178,-0.756 0.059,-0.266 0.118,-0.549 0.178,-0.844 0.296,-0.712 0.681,-1.334 1.156,-1.868 0.474,-0.533 1.097,-0.978 1.867,-1.334 0.534,-0.237 1.097,-0.43 1.69,-0.578 0.592,-0.148 1.185,-0.253 1.779,-0.311 l 0.267,0 0.266,0 c 0.059,0 0.133,0.014 0.222,0.045 0.09,0.029 0.163,0.044 0.223,0.044 0.473,0.118 0.978,0.236 1.511,0.356 0.533,0.118 1.068,0.267 1.601,0.444 1.008,0.296 2.03,0.696 3.068,1.201 1.036,0.502 2.03,1.051 2.979,1.645 1.007,0.651 1.912,1.348 2.712,2.089 0.8,0.741 1.556,1.557 2.267,2.446 l 0,0.089 C -0.075,-0.282 -0.031,-0.149 0,0 m 3.379,13.027 c 0.029,0 0.073,0.029 0.133,0.089 l 0.178,0 c 0.118,0 0.222,0.014 0.311,0.045 0.089,0.028 0.192,0.073 0.311,0.133 0.059,0.058 0.148,0.102 0.267,0.133 0.118,0.03 0.207,0.074 0.267,0.134 l 3.557,0 0.089,-0.534 0,-0.178 c 0,-0.059 0.029,-0.148 0.089,-0.266 l 0,-0.178 0,-0.267 C 8.639,11.604 8.699,10.967 8.759,10.226 8.817,9.484 8.877,8.67 8.937,7.781 8.995,6.832 9.069,5.898 9.159,4.979 9.248,4.06 9.351,3.097 9.47,2.09 9.588,0.607 9.766,-0.8 10.004,-2.134 c 0.235,-1.334 0.533,-2.594 0.889,-3.78 0.295,-1.244 0.696,-2.164 1.2,-2.756 0.503,-0.593 1.052,-0.889 1.645,-0.889 l 0.089,0 0.178,0 c 0.178,-0.12 0.311,-0.253 0.4,-0.4 0.089,-0.149 0.103,-0.282 0.044,-0.4 -0.059,-0.12 -0.163,-0.238 -0.31,-0.356 -0.15,-0.119 -0.312,-0.237 -0.49,-0.356 -0.177,-0.118 -0.371,-0.236 -0.578,-0.356 -0.208,-0.118 -0.46,-0.236 -0.756,-0.355 -0.119,-0.059 -0.237,-0.118 -0.355,-0.178 -0.12,-0.059 -0.237,-0.118 -0.356,-0.178 -0.178,-0.058 -0.327,-0.118 -0.445,-0.178 -0.119,-0.058 -0.237,-0.118 -0.355,-0.178 -0.178,-0.058 -0.342,-0.103 -0.49,-0.133 -0.148,-0.029 -0.282,-0.074 -0.399,-0.133 -0.179,0 -0.342,-0.014 -0.489,-0.045 -0.15,-0.029 -0.282,-0.073 -0.401,-0.133 C 8.788,-13.056 8.55,-13.13 8.314,-13.161 8.076,-13.19 7.869,-13.205 7.691,-13.205 l -3.556,-0.089 -0.533,0.089 -0.179,0.178 c -0.178,0.297 -0.326,0.622 -0.444,0.978 -0.12,0.356 -0.238,0.742 -0.356,1.156 -0.06,0.414 -0.134,0.859 -0.223,1.334 -0.088,0.474 -0.193,0.978 -0.31,1.512 L 2,-7.87 2,-7.603 C 1.94,-7.247 1.881,-6.907 1.822,-6.581 1.763,-6.255 1.674,-5.944 1.556,-5.646 1.081,-6.062 0.547,-6.462 -0.045,-6.847 -0.638,-7.233 -1.29,-7.603 -2.001,-7.958 -3.483,-8.67 -4.995,-9.263 -6.536,-9.737 c -1.542,-0.475 -3.112,-0.86 -4.713,-1.156 -0.653,-0.059 -1.305,-0.133 -1.956,-0.222 -0.653,-0.089 -1.305,-0.163 -1.956,-0.223 -0.594,-0.058 -1.201,-0.102 -1.823,-0.133 -0.622,-0.029 -1.232,-0.045 -1.824,-0.045 l -3.556,-0.088 c -0.594,0.059 -1.157,0.104 -1.69,0.133 -0.533,0.031 -1.038,0.075 -1.511,0.133 -0.476,0.06 -0.934,0.134 -1.378,0.223 -0.446,0.089 -0.845,0.163 -1.202,0.222 -0.888,0.296 -1.644,0.667 -2.267,1.111 -0.622,0.445 -1.111,0.963 -1.467,1.556 -0.415,0.534 -0.712,1.112 -0.89,1.735 -0.177,0.622 -0.266,1.289 -0.266,2 0,0.534 0.045,1.068 0.134,1.601 0.088,0.534 0.221,1.096 0.4,1.689 0.178,0.534 0.385,1.097 0.622,1.69 0.236,0.592 0.533,1.185 0.89,1.779 0.829,1.362 1.836,2.711 3.022,4.045 1.186,1.334 2.52,2.653 4.002,3.958 1.541,1.245 3.082,2.341 4.624,3.29 1.541,0.947 3.142,1.718 4.802,2.312 0.474,0.177 0.963,0.34 1.467,0.489 0.503,0.147 0.992,0.251 1.468,0.311 0.473,0.118 0.962,0.192 1.466,0.222 0.503,0.029 0.992,0.044 1.468,0.044 l 3.557,0 c 0.829,0 1.63,-0.088 2.4,-0.266 0.771,-0.178 1.512,-0.416 2.224,-0.712 0.651,-0.297 1.302,-0.697 1.956,-1.2 0.651,-0.504 1.245,-1.082 1.778,-1.734 l 0.134,0 z" /></g></g></g></g></svg>